<?xml version="1.0" standalone="no"?>
<!DOCTYPE svg PUBLIC "-//W3C//DTD SVG 20010904//EN"
 "http://www.w3.org/TR/2001/REC-SVG-20010904/DTD/svg10.dtd">
<svg version="1.0" xmlns="http://www.w3.org/2000/svg"
 width="500.000000pt" height="500.000000pt" viewBox="0 0 500.000000 500.000000"
 preserveAspectRatio="xMidYMid meet">

<g transform="translate(0.000000,500.000000) scale(0.100000,-0.100000)"
fill="#000000" stroke="none">
<path d="M2355 4974 c-650 -48 -1205 -310 -1655 -781 -457 -479 -697 -1096
-677 -1743 9 -254 44 -476 108 -676 182 -568 578 -1075 1081 -1381 301 -183
563 -277 976 -347 105 -18 543 -23 615 -7 23 5 83 17 132 26 101 18 247 52
285 65 14 5 72 25 130 45 200 70 479 221 629 341 120 95 217 183 316 285 261
269 420 529 554 902 29 81 66 238 103 442 17 94 17 549 0 670 -78 539 -279
976 -619 1344 -472 510 -1096 796 -1778 815 -82 2 -172 2 -200 0z m847 -972
c23 -22 23 -25 23 -281 0 -204 -3 -261 -14 -274 -12 -15 -39 -17 -208 -17
-186 0 -195 -1 -241 -25 -52 -27 -76 -55 -97 -116 -20 -55 -22 -474 -3 -485 7
-4 123 -8 259 -8 192 -1 249 -4 262 -15 31 -25 36 -81 29 -327 -6 -218 -9
-244 -26 -263 -18 -20 -28 -21 -271 -21 -221 0 -254 -2 -259 -16 -3 -9 -6
-323 -6 -698 0 -517 -3 -685 -12 -694 -9 -9 -86 -12 -285 -12 -268 0 -272 0
-284 21 -8 16 -11 206 -10 698 1 428 -2 681 -9 691 -8 13 -44 15 -238 12 -208
-3 -230 -2 -250 15 -20 17 -21 26 -24 295 -3 255 -2 279 15 295 16 16 44 19
248 23 207 4 232 7 244 23 10 13 14 99 18 350 6 361 8 377 68 503 24 51 54 90
114 150 171 171 286 204 697 201 233 -2 238 -2 260 -25z"/>
</g>
</svg>
