<?xml version="1.0" standalone="no"?>
<!DOCTYPE svg PUBLIC "-//W3C//DTD SVG 20010904//EN"
 "http://www.w3.org/TR/2001/REC-SVG-20010904/DTD/svg10.dtd">
<svg version="1.0" xmlns="http://www.w3.org/2000/svg"
 width="500.000000pt" height="500.000000pt" viewBox="0 0 500.000000 500.000000"
 preserveAspectRatio="xMidYMid meet">

<g transform="translate(0.000000,500.000000) scale(0.100000,-0.100000)"
fill="#000000" stroke="none">
<path d="M2340 4975 c-8 -2 -58 -9 -110 -15 -240 -30 -359 -57 -579 -130 -315
-105 -629 -300 -890 -555 -143 -140 -220 -232 -336 -405 -212 -317 -330 -626
-386 -1015 -19 -130 -21 -177 -15 -350 10 -346 67 -648 172 -915 59 -147 204
-426 235 -450 4 -3 32 -40 63 -83 123 -172 295 -358 426 -463 82 -65 270 -204
276 -204 3 0 44 -21 92 -48 199 -109 420 -195 622 -242 94 -22 129 -28 330
-55 186 -25 409 -18 690 24 236 35 588 161 794 286 32 19 67 35 76 35 10 0 20
4 22 8 2 4 38 34 80 65 406 298 725 687 882 1072 15 39 32 79 37 90 21 49 78
237 92 305 88 419 73 914 -40 1280 -120 392 -310 713 -590 997 -484 492 -1082
751 -1773 768 -85 2 -162 2 -170 0z m-589 -991 c73 -22 118 -46 158 -86 94
-92 121 -212 81 -350 -23 -80 -120 -170 -220 -205 -83 -30 -200 -10 -285 48
-54 36 -69 54 -105 124 -26 53 -30 70 -30 146 0 96 13 140 61 198 45 57 98 93
169 118 79 27 100 28 171 7z m1692 -878 c174 -58 296 -170 385 -352 36 -73 53
-125 81 -247 15 -67 15 -1117 0 -1151 -6 -13 -19 -26 -28 -28 -9 -2 -121 -4
-249 -3 -196 0 -234 2 -242 15 -6 9 -10 211 -10 499 0 575 -4 603 -95 716 -78
97 -245 134 -361 81 -101 -46 -142 -108 -173 -264 -7 -34 -11 -229 -11 -533 0
-443 -1 -480 -18 -496 -15 -16 -42 -18 -259 -18 -167 0 -246 4 -253 11 -9 9
-12 248 -13 875 l-1 864 219 3 c121 1 229 0 241 -2 26 -7 46 -48 53 -111 7
-58 27 -69 63 -34 101 96 233 167 383 203 52 13 212 -3 288 -28z m-1539 -42
c14 -14 16 -106 16 -869 0 -561 -3 -856 -10 -860 -15 -9 -498 -10 -507 -1 -9
9 -8 1709 1 1732 8 22 478 21 500 -2z"/>
</g>
</svg>
