<?xml version="1.0" standalone="no"?>
<!DOCTYPE svg PUBLIC "-//W3C//DTD SVG 20010904//EN"
 "http://www.w3.org/TR/2001/REC-SVG-20010904/DTD/svg10.dtd">
<svg version="1.0" xmlns="http://www.w3.org/2000/svg"
 width="500.000000pt" height="500.000000pt" viewBox="0 0 500.000000 500.000000"
 preserveAspectRatio="xMidYMid meet">

<g transform="translate(0.000000,500.000000) scale(0.100000,-0.100000)"
fill="#000000" stroke="none">
<path d="M2235 4949 c-399 -51 -708 -154 -1020 -342 -591 -356 -991 -925
-1144 -1632 -78 -357 -41 -860 92 -1235 140 -397 324 -689 621 -985 282 -281
639 -490 1051 -615 233 -70 606 -111 830 -90 138 12 329 46 460 81 44 11 94
24 110 29 17 4 72 24 124 44 51 20 99 36 106 36 17 0 227 108 298 153 32 20
61 37 65 37 12 0 236 171 308 235 339 300 582 662 719 1070 83 249 136 626
121 874 -30 507 -149 879 -403 1263 -234 353 -619 681 -1001 852 -291 130
-425 168 -766 216 -150 21 -436 26 -571 9z m671 -767 c16 -10 44 -68 44 -91 0
-11 4 -30 9 -43 4 -13 17 -50 27 -83 63 -209 215 -381 434 -488 70 -34 204
-77 241 -77 20 0 34 -8 46 -27 15 -23 18 -53 18 -237 0 -305 -10 -341 -88
-317 -18 5 -59 17 -92 26 -33 10 -76 22 -95 28 -19 6 -48 16 -65 23 -16 6 -50
19 -75 27 -89 30 -227 93 -290 132 -19 12 -40 20 -46 18 -7 -2 -9 -156 -6
-506 5 -583 -1 -678 -54 -852 -82 -268 -288 -497 -538 -597 -191 -76 -435 -80
-663 -9 -45 13 -156 70 -228 116 -75 48 -222 194 -271 270 -74 116 -119 227
-149 369 -14 62 -16 108 -12 220 5 134 13 177 52 291 82 238 286 459 527 569
154 71 325 116 442 116 68 0 76 -2 87 -22 17 -32 23 -260 11 -393 -13 -129
-17 -135 -106 -135 -137 -1 -257 -51 -351 -145 -155 -154 -177 -391 -54 -572
76 -112 166 -170 315 -203 59 -13 159 5 234 43 60 30 141 113 169 173 51 107
50 83 51 1265 0 608 3 1109 7 1112 9 9 455 9 469 -1z"/>
</g>
</svg>
