<?xml version="1.0" standalone="no"?>
<!DOCTYPE svg PUBLIC "-//W3C//DTD SVG 20010904//EN"
 "http://www.w3.org/TR/2001/REC-SVG-20010904/DTD/svg10.dtd">
<svg version="1.0" xmlns="http://www.w3.org/2000/svg"
 width="500.000000pt" height="500.000000pt" viewBox="0 0 500.000000 500.000000"
 preserveAspectRatio="xMidYMid meet">

<g transform="translate(0.000000,500.000000) scale(0.100000,-0.100000)"
fill="#000000" stroke="none">
<path d="M2315 4955 c-11 -2 -69 -9 -130 -15 -263 -28 -457 -83 -765 -217 -99
-43 -359 -214 -485 -319 -401 -332 -679 -758 -823 -1259 -64 -221 -77 -327
-77 -630 0 -351 25 -523 114 -792 79 -239 219 -509 361 -698 76 -101 220 -257
330 -357 285 -260 717 -486 1085 -567 243 -54 321 -63 555 -63 124 0 252 5
285 10 33 6 94 16 135 22 542 84 1086 394 1469 840 65 75 201 254 201 264 0 3
20 36 44 73 127 197 254 525 295 763 6 36 16 92 22 125 17 93 23 494 10 615
-16 144 -41 311 -52 335 -4 11 -17 58 -29 104 -86 346 -292 699 -579 995 -409
421 -908 673 -1486 752 -103 14 -435 27 -480 19z m435 -819 c146 -27 180 -36
272 -66 51 -18 134 -52 184 -76 84 -41 263 -147 274 -163 3 -4 32 -28 65 -53
129 -98 298 -301 388 -465 42 -76 119 -259 145 -343 6 -19 22 -93 36 -164 43
-214 35 -467 -20 -696 -107 -440 -410 -825 -819 -1042 -130 -68 -291 -123
-500 -170 -81 -18 -448 -18 -530 1 -139 30 -278 69 -330 90 -51 22 -95 42
-159 71 -39 17 -79 29 -90 27 -12 -3 -68 -17 -126 -32 -58 -14 -134 -33 -170
-41 -36 -8 -81 -19 -100 -24 -146 -39 -272 -60 -317 -53 -17 3 -41 15 -53 28
-19 20 -21 32 -17 92 4 63 24 164 61 308 60 236 86 352 86 380 0 18 -19 77
-41 131 -71 171 -92 250 -123 467 -21 143 -20 246 4 397 37 236 71 345 165
535 124 249 313 461 545 610 189 122 432 217 643 250 115 17 433 18 527 1z"/>
<path d="M2270 3848 c-200 -33 -407 -118 -569 -232 -378 -267 -589 -741 -542
-1217 19 -185 62 -341 137 -492 46 -93 55 -145 35 -211 -13 -44 -26 -95 -56
-221 -14 -60 -30 -123 -35 -139 -12 -38 -4 -49 29 -40 14 3 42 10 61 14 80 17
220 51 285 70 39 11 81 20 94 20 14 0 77 -25 140 -56 127 -62 131 -64 211 -92
49 -18 104 -32 237 -62 56 -13 362 -13 421 0 26 6 70 16 97 22 241 53 467 180
650 363 107 108 135 145 208 280 86 159 126 270 153 432 23 137 15 415 -16
528 -12 44 -24 92 -27 108 -3 15 -9 30 -14 33 -5 3 -9 12 -9 21 0 20 -73 175
-112 238 -61 96 -157 212 -233 281 -214 193 -426 294 -743 354 -64 12 -326 11
-402 -2z m-200 -593 c33 -17 58 -55 95 -145 15 -36 37 -87 49 -115 13 -27 31
-71 41 -97 17 -46 17 -49 0 -75 -10 -16 -46 -57 -80 -93 -88 -92 -92 -102 -62
-152 59 -100 222 -256 360 -346 122 -78 180 -106 209 -99 14 4 62 49 112 106
58 67 96 102 115 106 28 6 106 -26 296 -120 67 -33 83 -46 98 -78 16 -34 17
-46 6 -95 -32 -149 -112 -240 -252 -287 -52 -18 -179 -16 -267 2 -233 50 -543
226 -732 415 -137 137 -210 234 -292 390 -146 278 -153 462 -21 594 46 46 85
69 149 89 56 18 141 18 176 0z"/>
</g>
</svg>
