<?xml version="1.0" standalone="no"?>
<!DOCTYPE svg PUBLIC "-//W3C//DTD SVG 20010904//EN"
 "http://www.w3.org/TR/2001/REC-SVG-20010904/DTD/svg10.dtd">
<svg version="1.0" xmlns="http://www.w3.org/2000/svg"
 width="500.000000pt" height="500.000000pt" viewBox="0 0 500.000000 500.000000"
 preserveAspectRatio="xMidYMid meet">

<g transform="translate(0.000000,500.000000) scale(0.100000,-0.100000)"
fill="#000000" stroke="none">
<path d="M2175 4960 c-400 -61 -680 -163 -995 -363 -371 -235 -697 -591 -885
-966 -274 -545 -334 -1101 -184 -1703 41 -164 104 -329 193 -504 110 -219 204
-357 370 -546 287 -329 737 -603 1201 -732 166 -46 500 -96 640 -96 119 0 375
31 500 60 139 32 179 43 260 68 164 53 380 151 499 227 30 19 60 35 66 35 5 0
10 4 10 8 0 4 15 16 33 27 17 10 34 21 37 24 3 4 18 15 33 24 16 10 36 24 45
32 9 7 52 41 94 74 191 153 430 430 551 641 203 354 310 742 323 1165 11 356
-53 746 -167 1014 -54 128 -137 293 -190 377 -304 489 -812 874 -1384 1049
-95 29 -112 33 -240 59 -251 49 -587 60 -810 26z m1310 -1318 c231 -15 293
-32 402 -114 96 -73 152 -173 182 -328 30 -155 42 -864 20 -1200 -17 -269 -63
-379 -199 -481 -19 -14 -51 -32 -70 -41 -32 -14 -50 -20 -142 -48 -164 -48
-1016 -80 -1613 -61 -526 17 -607 24 -734 67 -200 67 -313 196 -365 415 -26
110 -36 295 -36 646 0 586 33 793 151 936 43 52 142 120 219 150 74 28 293 56
457 58 54 1 127 5 163 9 92 11 1373 4 1565 -8z"/>
<path d="M2177 2992 c-15 -17 -17 -64 -17 -471 0 -293 4 -459 10 -472 17 -31
60 -23 146 29 192 117 621 386 637 400 9 8 17 25 17 37 0 12 -8 29 -17 37 -10
9 -156 102 -325 207 -453 282 -422 266 -451 233z"/>
</g>
</svg>
