<?xml version="1.0" encoding="UTF-8"?>
<svg width="600" height="400" viewBox="0 0 600 400" xmlns="http://www.w3.org/2000/svg">

  <!-- DEFINICIONES DE GRADIENTES Y SOMBRAS -->
  <defs>
    <!-- Degradado principal -->
    <linearGradient id="grad-main" x1="0%" y1="0%" x2="100%" y2="100%">
      <stop offset="0%" stop-color="#4b1d7a"/>
      <stop offset="100%" stop-color="#ff5e00"/>
    </linearGradient>

    <!-- Degradado suave de fondo -->
    <radialGradient id="grad-bg" cx="50%" cy="50%" r="50%">
      <stop offset="0%" stop-color="#4b1d7a" stop-opacity="0.2"/>
      <stop offset="100%" stop-color="#000000" stop-opacity="0"/>
    </radialGradient>

    <!-- Sombra para la luna -->
    <filter id="moon-shadow" x="-20%" y="-20%" width="140%" height="140%">
      <feDropShadow dx="0" dy="8" stdDeviation="8" flood-color="#000" flood-opacity="0.25"/>
    </filter>
  </defs>

  <!-- FONDO RADIAL SUAVE -->
  <rect width="600" height="400" fill="url(#grad-bg)" />

  <!-- CÍRCULO DE FONDO PARA CONTRASTE -->
  <circle cx="300" cy="200" r="180" fill="url(#grad-main)" fill-opacity="0.1"/>

  <!-- MEDIA LUNA CON SOMBRA -->
  <path
    d="M380,200
       A100,100 0 1,1 300,100
       A140,140 0 1,0 380,200Z"
    fill="url(#grad-main)"
    filter="url(#moon-shadow)"
  />

  <!-- ESTRELLA CENTRAL -->
  <polygon
    points="300,120 320,190 390,190 330,235 350,305 300,260 250,305 270,235 210,190 280,190"
    fill="url(#grad-main)"
  />

  <!-- DESTELLOS ANIMADOS (ESTÁTICOS) -->
  <g>
    <circle cx="500" cy="80" r="12" fill="#ff5e00" opacity="0.8"/>
    <circle cx="520" cy="130" r="8" fill="#4b1d7a" opacity="0.8"/>
    <circle cx="480" cy="160" r="10" fill="#ff5e00" opacity="0.6"/>
    <circle cx="130" cy="300" r="6" fill="#4b1d7a" opacity="0.6"/>
    <circle cx="550" cy="250" r="5" fill="#4b1d7a" opacity="0.5"/>
  </g>

</svg>
